<mxfile host="app.diagrams.net" agent="Mozilla/5.0 (Windows NT 10.0; Win64; x64) AppleWebKit/537.36 (KHTML, like Gecko) Chrome/135.0.0.0 Safari/537.36" version="26.2.10">
  <diagram name="Page-1" id="dPO3_NmPWIpuRCWerbCu">
    <mxGraphModel dx="1653" dy="468" grid="1" gridSize="10" guides="1" tooltips="1" connect="1" arrows="1" fold="1" page="1" pageScale="1" pageWidth="850" pageHeight="1100" math="0" shadow="0">
      <root>
        <mxCell id="0" />
        <mxCell id="1" parent="0" />
        <mxCell id="myEfRL5CyK3dBqMI6C4j-16" value="&lt;font style=&quot;font-size: 20px;&quot;&gt;User&lt;/font&gt;" style="swimlane;whiteSpace=wrap;html=1;startSize=23;labelBackgroundColor=none;fillColor=#FAE5C7;strokeColor=#0F8B8D;fontColor=#143642;" parent="1" vertex="1">
          <mxGeometry x="-310" y="570" width="680" height="1470" as="geometry" />
        </mxCell>
        <mxCell id="myEfRL5CyK3dBqMI6C4j-23" value="" style="rhombus;whiteSpace=wrap;html=1;labelBackgroundColor=none;fillColor=#FAE5C7;strokeColor=#0F8B8D;fontColor=#143642;" parent="myEfRL5CyK3dBqMI6C4j-16" vertex="1">
          <mxGeometry x="333" y="240" width="30" height="40" as="geometry" />
        </mxCell>
        <mxCell id="myEfRL5CyK3dBqMI6C4j-59" value="if new user" style="edgeLabel;html=1;align=center;verticalAlign=middle;resizable=0;points=[];labelBackgroundColor=none;fontColor=#143642;" parent="myEfRL5CyK3dBqMI6C4j-16" vertex="1" connectable="0">
          <mxGeometry x="270.0017391304349" y="263" as="geometry">
            <mxPoint x="20" y="-10" as="offset" />
          </mxGeometry>
        </mxCell>
        <mxCell id="myEfRL5CyK3dBqMI6C4j-82" value="if freelancer" style="edgeLabel;html=1;align=center;verticalAlign=middle;resizable=0;points=[];labelBackgroundColor=none;fontColor=#143642;" parent="myEfRL5CyK3dBqMI6C4j-16" vertex="1" connectable="0">
          <mxGeometry x="210.00173913043488" y="610" as="geometry" />
        </mxCell>
        <mxCell id="myEfRL5CyK3dBqMI6C4j-94" value="if coder" style="edgeLabel;html=1;align=center;verticalAlign=middle;resizable=0;points=[];labelBackgroundColor=none;fontColor=#143642;" parent="myEfRL5CyK3dBqMI6C4j-16" vertex="1" connectable="0">
          <mxGeometry x="120.00173913043488" y="800" as="geometry">
            <mxPoint x="62" y="11" as="offset" />
          </mxGeometry>
        </mxCell>
        <mxCell id="myEfRL5CyK3dBqMI6C4j-84" value="" style="rhombus;whiteSpace=wrap;html=1;labelBackgroundColor=none;fillColor=#FAE5C7;strokeColor=#0F8B8D;fontColor=#143642;" parent="myEfRL5CyK3dBqMI6C4j-16" vertex="1">
          <mxGeometry x="163" y="738" width="30" height="40" as="geometry" />
        </mxCell>
        <mxCell id="myEfRL5CyK3dBqMI6C4j-93" value="if desiging tools" style="edgeLabel;html=1;align=center;verticalAlign=middle;resizable=0;points=[];labelBackgroundColor=none;fontColor=#143642;" parent="myEfRL5CyK3dBqMI6C4j-16" vertex="1" connectable="0">
          <mxGeometry x="238.00173913043488" y="748" as="geometry" />
        </mxCell>
        <mxCell id="myEfRL5CyK3dBqMI6C4j-92" value="if planner" style="edgeLabel;html=1;align=center;verticalAlign=middle;resizable=0;points=[];labelBackgroundColor=none;fontColor=#143642;" parent="myEfRL5CyK3dBqMI6C4j-16" vertex="1" connectable="0">
          <mxGeometry x="150.00173913043488" y="758" as="geometry">
            <mxPoint x="-10" y="-10" as="offset" />
          </mxGeometry>
        </mxCell>
        <mxCell id="myEfRL5CyK3dBqMI6C4j-139" value="if company / team" style="edgeLabel;html=1;align=center;verticalAlign=middle;resizable=0;points=[];labelBackgroundColor=none;fontColor=#143642;" parent="myEfRL5CyK3dBqMI6C4j-16" vertex="1" connectable="0">
          <mxGeometry x="253.00173913043488" y="623" as="geometry">
            <mxPoint x="226" y="-13" as="offset" />
          </mxGeometry>
        </mxCell>
        <mxCell id="myEfRL5CyK3dBqMI6C4j-206" value="if verified" style="edgeLabel;html=1;align=center;verticalAlign=middle;resizable=0;points=[];labelBackgroundColor=none;fontColor=#143642;" parent="myEfRL5CyK3dBqMI6C4j-16" vertex="1" connectable="0">
          <mxGeometry x="416.0017391304349" y="252" as="geometry">
            <mxPoint x="-9" y="1" as="offset" />
          </mxGeometry>
        </mxCell>
        <mxCell id="myEfRL5CyK3dBqMI6C4j-22" value="" style="edgeStyle=orthogonalEdgeStyle;html=1;verticalAlign=bottom;endArrow=open;endSize=8;rounded=0;entryX=0.5;entryY=0;entryDx=0;entryDy=0;labelBackgroundColor=none;fontColor=default;strokeColor=#A8201A;" parent="myEfRL5CyK3dBqMI6C4j-16" source="myEfRL5CyK3dBqMI6C4j-21" target="myEfRL5CyK3dBqMI6C4j-4" edge="1">
          <mxGeometry relative="1" as="geometry">
            <mxPoint x="348" y="130" as="targetPoint" />
          </mxGeometry>
        </mxCell>
        <mxCell id="myEfRL5CyK3dBqMI6C4j-45" value="" style="endArrow=classic;html=1;rounded=0;exitX=0.5;exitY=1;exitDx=0;exitDy=0;entryX=0.5;entryY=0;entryDx=0;entryDy=0;labelBackgroundColor=none;fontColor=default;strokeColor=#A8201A;" parent="myEfRL5CyK3dBqMI6C4j-16" source="myEfRL5CyK3dBqMI6C4j-4" target="myEfRL5CyK3dBqMI6C4j-5" edge="1">
          <mxGeometry width="50" height="50" relative="1" as="geometry">
            <mxPoint x="513" y="270" as="sourcePoint" />
            <mxPoint x="563" y="220" as="targetPoint" />
          </mxGeometry>
        </mxCell>
        <mxCell id="myEfRL5CyK3dBqMI6C4j-185" value="" style="endArrow=classic;html=1;rounded=0;labelBackgroundColor=none;fontColor=default;strokeColor=#A8201A;" parent="myEfRL5CyK3dBqMI6C4j-16" target="myEfRL5CyK3dBqMI6C4j-28" edge="1">
          <mxGeometry width="50" height="50" relative="1" as="geometry">
            <mxPoint x="333" y="260" as="sourcePoint" />
            <mxPoint x="263" y="322" as="targetPoint" />
            <Array as="points">
              <mxPoint x="300" y="260" />
              <mxPoint x="263" y="260" />
              <mxPoint x="263" y="292" />
            </Array>
          </mxGeometry>
        </mxCell>
        <mxCell id="myEfRL5CyK3dBqMI6C4j-186" value="" style="endArrow=classic;html=1;rounded=0;exitX=1;exitY=0.5;exitDx=0;exitDy=0;entryX=0.5;entryY=0;entryDx=0;entryDy=0;labelBackgroundColor=none;fontColor=default;strokeColor=#A8201A;" parent="myEfRL5CyK3dBqMI6C4j-16" target="myEfRL5CyK3dBqMI6C4j-56" edge="1">
          <mxGeometry width="50" height="50" relative="1" as="geometry">
            <mxPoint x="363" y="259.9999999999998" as="sourcePoint" />
            <mxPoint x="433" y="342" as="targetPoint" />
            <Array as="points">
              <mxPoint x="433" y="260" />
              <mxPoint x="433" y="294" />
              <mxPoint x="433" y="450" />
              <mxPoint x="263" y="450" />
            </Array>
          </mxGeometry>
        </mxCell>
        <mxCell id="myEfRL5CyK3dBqMI6C4j-187" value="" style="endArrow=classic;html=1;rounded=0;entryX=0.5;entryY=0;entryDx=0;entryDy=0;labelBackgroundColor=none;fontColor=default;strokeColor=#A8201A;" parent="myEfRL5CyK3dBqMI6C4j-16" target="myEfRL5CyK3dBqMI6C4j-29" edge="1">
          <mxGeometry width="50" height="50" relative="1" as="geometry">
            <mxPoint x="263" y="370" as="sourcePoint" />
            <mxPoint x="313" y="320" as="targetPoint" />
          </mxGeometry>
        </mxCell>
        <mxCell id="myEfRL5CyK3dBqMI6C4j-189" value="" style="endArrow=classic;html=1;rounded=0;exitX=0.5;exitY=1;exitDx=0;exitDy=0;labelBackgroundColor=none;fontColor=default;strokeColor=#A8201A;" parent="myEfRL5CyK3dBqMI6C4j-16" edge="1">
          <mxGeometry width="50" height="50" relative="1" as="geometry">
            <mxPoint x="262.47" y="511" as="sourcePoint" />
            <mxPoint x="262" y="540" as="targetPoint" />
          </mxGeometry>
        </mxCell>
        <mxCell id="myEfRL5CyK3dBqMI6C4j-190" value="" style="endArrow=classic;html=1;rounded=0;exitX=1;exitY=0.5;exitDx=0;exitDy=0;entryX=0.5;entryY=0;entryDx=0;entryDy=0;labelBackgroundColor=none;fontColor=default;strokeColor=#A8201A;" parent="myEfRL5CyK3dBqMI6C4j-16" source="myEfRL5CyK3dBqMI6C4j-75" target="myEfRL5CyK3dBqMI6C4j-80" edge="1">
          <mxGeometry width="50" height="50" relative="1" as="geometry">
            <mxPoint x="263.47" y="569" as="sourcePoint" />
            <mxPoint x="263" y="598" as="targetPoint" />
            <Array as="points">
              <mxPoint x="365" y="555" />
            </Array>
          </mxGeometry>
        </mxCell>
        <mxCell id="myEfRL5CyK3dBqMI6C4j-81" value="" style="endArrow=classic;html=1;rounded=0;exitX=0;exitY=0.5;exitDx=0;exitDy=0;labelBackgroundColor=none;fontColor=default;strokeColor=#A8201A;" parent="myEfRL5CyK3dBqMI6C4j-16" source="myEfRL5CyK3dBqMI6C4j-80" edge="1">
          <mxGeometry width="50" height="50" relative="1" as="geometry">
            <mxPoint x="248" y="618" as="sourcePoint" />
            <mxPoint x="178" y="678" as="targetPoint" />
            <Array as="points">
              <mxPoint x="178" y="618" />
              <mxPoint x="178" y="648" />
            </Array>
          </mxGeometry>
        </mxCell>
        <mxCell id="myEfRL5CyK3dBqMI6C4j-141" value="" style="endArrow=classic;html=1;rounded=0;exitX=1;exitY=0.5;exitDx=0;exitDy=0;entryX=0.413;entryY=-0.042;entryDx=0;entryDy=0;entryPerimeter=0;labelBackgroundColor=none;fontColor=default;strokeColor=#A8201A;" parent="myEfRL5CyK3dBqMI6C4j-16" source="myEfRL5CyK3dBqMI6C4j-80" target="myEfRL5CyK3dBqMI6C4j-138" edge="1">
          <mxGeometry width="50" height="50" relative="1" as="geometry">
            <mxPoint x="413" y="618" as="sourcePoint" />
            <mxPoint x="343" y="678" as="targetPoint" />
            <Array as="points">
              <mxPoint x="533" y="618" />
              <mxPoint x="533" y="640" />
            </Array>
          </mxGeometry>
        </mxCell>
        <mxCell id="myEfRL5CyK3dBqMI6C4j-107" value="" style="endArrow=classic;html=1;rounded=0;exitX=0.5;exitY=1;exitDx=0;exitDy=0;entryX=0.5;entryY=0;entryDx=0;entryDy=0;labelBackgroundColor=none;fontColor=default;strokeColor=#A8201A;" parent="myEfRL5CyK3dBqMI6C4j-16" source="myEfRL5CyK3dBqMI6C4j-30" edge="1">
          <mxGeometry width="50" height="50" relative="1" as="geometry">
            <mxPoint x="253" y="738" as="sourcePoint" />
            <mxPoint x="178" y="738" as="targetPoint" />
          </mxGeometry>
        </mxCell>
        <mxCell id="myEfRL5CyK3dBqMI6C4j-88" value="" style="endArrow=classic;html=1;rounded=0;exitX=0;exitY=0.5;exitDx=0;exitDy=0;entryX=0.333;entryY=0.041;entryDx=0;entryDy=0;entryPerimeter=0;labelBackgroundColor=none;fontColor=default;strokeColor=#A8201A;" parent="myEfRL5CyK3dBqMI6C4j-16" target="myEfRL5CyK3dBqMI6C4j-87" edge="1">
          <mxGeometry width="50" height="50" relative="1" as="geometry">
            <mxPoint x="163" y="759" as="sourcePoint" />
            <mxPoint x="103" y="820" as="targetPoint" />
            <Array as="points">
              <mxPoint x="103" y="759" />
              <mxPoint x="103" y="789" />
            </Array>
          </mxGeometry>
        </mxCell>
        <mxCell id="myEfRL5CyK3dBqMI6C4j-89" value="" style="endArrow=classic;html=1;rounded=0;exitX=1;exitY=0.5;exitDx=0;exitDy=0;labelBackgroundColor=none;fontColor=default;strokeColor=#A8201A;" parent="myEfRL5CyK3dBqMI6C4j-16" edge="1">
          <mxGeometry width="50" height="50" relative="1" as="geometry">
            <mxPoint x="193" y="758" as="sourcePoint" />
            <mxPoint x="253" y="836" as="targetPoint" />
            <Array as="points">
              <mxPoint x="253" y="758" />
            </Array>
          </mxGeometry>
        </mxCell>
        <mxCell id="myEfRL5CyK3dBqMI6C4j-91" value="" style="endArrow=classic;html=1;rounded=0;exitX=0.5;exitY=1;exitDx=0;exitDy=0;entryX=0.5;entryY=0;entryDx=0;entryDy=0;labelBackgroundColor=none;fontColor=default;strokeColor=#A8201A;" parent="myEfRL5CyK3dBqMI6C4j-16" target="myEfRL5CyK3dBqMI6C4j-85" edge="1">
          <mxGeometry width="50" height="50" relative="1" as="geometry">
            <mxPoint x="178" y="778" as="sourcePoint" />
            <mxPoint x="348" y="948" as="targetPoint" />
            <Array as="points" />
          </mxGeometry>
        </mxCell>
        <mxCell id="myEfRL5CyK3dBqMI6C4j-4" value="Open Robo Hatch Platform" style="rounded=0;whiteSpace=wrap;html=1;labelBackgroundColor=none;fillColor=#FAE5C7;strokeColor=#0F8B8D;fontColor=#143642;" parent="myEfRL5CyK3dBqMI6C4j-16" vertex="1">
          <mxGeometry x="288" y="110" width="120" height="40" as="geometry" />
        </mxCell>
        <mxCell id="myEfRL5CyK3dBqMI6C4j-21" value="" style="ellipse;html=1;shape=startState;labelBackgroundColor=none;fillColor=#FAE5C7;strokeColor=#0F8B8D;fontColor=#143642;" parent="myEfRL5CyK3dBqMI6C4j-16" vertex="1">
          <mxGeometry x="333" y="40" width="30" height="30" as="geometry" />
        </mxCell>
        <mxCell id="myEfRL5CyK3dBqMI6C4j-5" value="Register or Login" style="rounded=0;whiteSpace=wrap;html=1;labelBackgroundColor=none;fillColor=#FAE5C7;strokeColor=#0F8B8D;fontColor=#143642;" parent="myEfRL5CyK3dBqMI6C4j-16" vertex="1">
          <mxGeometry x="288" y="190" width="120" height="30" as="geometry" />
        </mxCell>
        <mxCell id="myEfRL5CyK3dBqMI6C4j-28" value="Fill Registration Form" style="rounded=0;whiteSpace=wrap;html=1;labelBackgroundColor=none;fillColor=#FAE5C7;strokeColor=#0F8B8D;fontColor=#143642;" parent="myEfRL5CyK3dBqMI6C4j-16" vertex="1">
          <mxGeometry x="203" y="340" width="120" height="30" as="geometry" />
        </mxCell>
        <mxCell id="myEfRL5CyK3dBqMI6C4j-29" value="Submit for Verification" style="rounded=0;whiteSpace=wrap;html=1;labelBackgroundColor=none;fillColor=#FAE5C7;strokeColor=#0F8B8D;fontColor=#143642;" parent="myEfRL5CyK3dBqMI6C4j-16" vertex="1">
          <mxGeometry x="203" y="400" width="120" height="30" as="geometry" />
        </mxCell>
        <mxCell id="myEfRL5CyK3dBqMI6C4j-56" value="Access Dashboard" style="rounded=0;whiteSpace=wrap;html=1;labelBackgroundColor=none;fillColor=#FAE5C7;strokeColor=#0F8B8D;fontColor=#143642;" parent="myEfRL5CyK3dBqMI6C4j-16" vertex="1">
          <mxGeometry x="203" y="480" width="120" height="30" as="geometry" />
        </mxCell>
        <mxCell id="myEfRL5CyK3dBqMI6C4j-75" value="Select Role" style="rounded=0;whiteSpace=wrap;html=1;labelBackgroundColor=none;fillColor=#FAE5C7;strokeColor=#0F8B8D;fontColor=#143642;" parent="myEfRL5CyK3dBqMI6C4j-16" vertex="1">
          <mxGeometry x="203" y="540" width="120" height="30" as="geometry" />
        </mxCell>
        <mxCell id="myEfRL5CyK3dBqMI6C4j-80" value="" style="rhombus;whiteSpace=wrap;html=1;labelBackgroundColor=none;fillColor=#FAE5C7;strokeColor=#0F8B8D;fontColor=#143642;" parent="myEfRL5CyK3dBqMI6C4j-16" vertex="1">
          <mxGeometry x="350" y="598" width="30" height="40" as="geometry" />
        </mxCell>
        <mxCell id="myEfRL5CyK3dBqMI6C4j-30" value="View Freelance Option" style="rounded=0;whiteSpace=wrap;html=1;labelBackgroundColor=none;fillColor=#FAE5C7;strokeColor=#0F8B8D;fontColor=#143642;" parent="myEfRL5CyK3dBqMI6C4j-16" vertex="1">
          <mxGeometry x="118" y="678" width="120" height="30" as="geometry" />
        </mxCell>
        <mxCell id="myEfRL5CyK3dBqMI6C4j-90" value="Access Desigining Tools" style="rounded=0;whiteSpace=wrap;html=1;labelBackgroundColor=none;fillColor=#FAE5C7;strokeColor=#0F8B8D;fontColor=#143642;" parent="myEfRL5CyK3dBqMI6C4j-16" vertex="1">
          <mxGeometry x="193" y="836" width="120" height="30" as="geometry" />
        </mxCell>
        <mxCell id="myEfRL5CyK3dBqMI6C4j-87" value="Access Planning Tools" style="rounded=0;whiteSpace=wrap;html=1;labelBackgroundColor=none;fillColor=#FAE5C7;strokeColor=#0F8B8D;fontColor=#143642;" parent="myEfRL5CyK3dBqMI6C4j-16" vertex="1">
          <mxGeometry x="70" y="835" width="100" height="32" as="geometry" />
        </mxCell>
        <mxCell id="myEfRL5CyK3dBqMI6C4j-85" value="Access Coding Tools" style="rounded=0;whiteSpace=wrap;html=1;labelBackgroundColor=none;fillColor=#FAE5C7;strokeColor=#0F8B8D;fontColor=#143642;" parent="myEfRL5CyK3dBqMI6C4j-16" vertex="1">
          <mxGeometry x="118" y="898" width="120" height="30" as="geometry" />
        </mxCell>
        <mxCell id="myEfRL5CyK3dBqMI6C4j-140" value="Choose Project Type" style="rounded=0;whiteSpace=wrap;html=1;labelBackgroundColor=none;fillColor=#FAE5C7;strokeColor=#0F8B8D;fontColor=#143642;" parent="myEfRL5CyK3dBqMI6C4j-16" vertex="1">
          <mxGeometry x="483" y="770" width="120" height="30" as="geometry" />
        </mxCell>
        <mxCell id="myEfRL5CyK3dBqMI6C4j-138" value="View Team / Company Option" style="rounded=0;whiteSpace=wrap;html=1;labelBackgroundColor=none;fillColor=#FAE5C7;strokeColor=#0F8B8D;fontColor=#143642;" parent="myEfRL5CyK3dBqMI6C4j-16" vertex="1">
          <mxGeometry x="483" y="700" width="120" height="30" as="geometry" />
        </mxCell>
        <mxCell id="myEfRL5CyK3dBqMI6C4j-225" value="" style="endArrow=classic;html=1;rounded=0;exitX=0.5;exitY=1;exitDx=0;exitDy=0;entryX=0.5;entryY=0;entryDx=0;entryDy=0;labelBackgroundColor=none;fontColor=default;strokeColor=#A8201A;" parent="myEfRL5CyK3dBqMI6C4j-16" source="myEfRL5CyK3dBqMI6C4j-5" target="myEfRL5CyK3dBqMI6C4j-23" edge="1">
          <mxGeometry width="50" height="50" relative="1" as="geometry">
            <mxPoint x="350" y="340" as="sourcePoint" />
            <mxPoint x="400" y="290" as="targetPoint" />
          </mxGeometry>
        </mxCell>
        <mxCell id="myEfRL5CyK3dBqMI6C4j-236" value="Explore Marketplace" style="rounded=0;whiteSpace=wrap;html=1;labelBackgroundColor=none;fillColor=#FAE5C7;strokeColor=#0F8B8D;fontColor=#143642;" parent="myEfRL5CyK3dBqMI6C4j-16" vertex="1">
          <mxGeometry x="110" y="1116" width="120" height="30" as="geometry" />
        </mxCell>
        <mxCell id="myEfRL5CyK3dBqMI6C4j-237" value="Buy/Sell Assets" style="rounded=0;whiteSpace=wrap;html=1;labelBackgroundColor=none;fillColor=#FAE5C7;strokeColor=#0F8B8D;fontColor=#143642;" parent="myEfRL5CyK3dBqMI6C4j-16" vertex="1">
          <mxGeometry x="110" y="1206" width="120" height="30" as="geometry" />
        </mxCell>
        <mxCell id="myEfRL5CyK3dBqMI6C4j-242" value="" style="endArrow=classic;html=1;rounded=0;exitX=0.5;exitY=1;exitDx=0;exitDy=0;entryX=0.5;entryY=0;entryDx=0;entryDy=0;labelBackgroundColor=none;fontColor=default;strokeColor=#A8201A;" parent="myEfRL5CyK3dBqMI6C4j-16" target="myEfRL5CyK3dBqMI6C4j-179" edge="1">
          <mxGeometry width="50" height="50" relative="1" as="geometry">
            <mxPoint x="364.37" y="635" as="sourcePoint" />
            <mxPoint x="1040" y="870" as="targetPoint" />
            <Array as="points">
              <mxPoint x="364" y="870" />
              <mxPoint x="975" y="870" />
            </Array>
          </mxGeometry>
        </mxCell>
        <mxCell id="myEfRL5CyK3dBqMI6C4j-253" value="" style="endArrow=classic;html=1;rounded=0;exitX=0.5;exitY=1;exitDx=0;exitDy=0;entryX=0.5;entryY=0;entryDx=0;entryDy=0;labelBackgroundColor=none;fontColor=default;strokeColor=#A8201A;" parent="myEfRL5CyK3dBqMI6C4j-16" target="myEfRL5CyK3dBqMI6C4j-237" edge="1">
          <mxGeometry width="50" height="50" relative="1" as="geometry">
            <mxPoint x="169.17000000000002" y="1146" as="sourcePoint" />
            <mxPoint x="169.17000000000002" y="1186" as="targetPoint" />
          </mxGeometry>
        </mxCell>
        <mxCell id="myEfRL5CyK3dBqMI6C4j-262" value="" style="endArrow=classic;html=1;rounded=0;entryX=0.5;entryY=0;entryDx=0;entryDy=0;exitX=0.5;exitY=1;exitDx=0;exitDy=0;labelBackgroundColor=none;fontColor=default;strokeColor=#A8201A;" parent="myEfRL5CyK3dBqMI6C4j-16" target="myEfRL5CyK3dBqMI6C4j-264" edge="1">
          <mxGeometry width="50" height="50" relative="1" as="geometry">
            <mxPoint x="170.19000000000005" y="1236" as="sourcePoint" />
            <mxPoint x="170" y="1296" as="targetPoint" />
          </mxGeometry>
        </mxCell>
        <mxCell id="myEfRL5CyK3dBqMI6C4j-264" value="" style="ellipse;html=1;shape=endState;labelBackgroundColor=none;fillColor=#FAE5C7;strokeColor=#0F8B8D;fontColor=#143642;" parent="myEfRL5CyK3dBqMI6C4j-16" vertex="1">
          <mxGeometry x="155" y="1280" width="30" height="30" as="geometry" />
        </mxCell>
        <mxCell id="myEfRL5CyK3dBqMI6C4j-267" value="Start" style="text;html=1;align=center;verticalAlign=middle;resizable=0;points=[];autosize=1;strokeColor=none;fillColor=none;labelBackgroundColor=none;fontColor=#143642;" parent="myEfRL5CyK3dBqMI6C4j-16" vertex="1">
          <mxGeometry x="287" y="40" width="50" height="30" as="geometry" />
        </mxCell>
        <mxCell id="myEfRL5CyK3dBqMI6C4j-31" value="&lt;font style=&quot;font-size: 19px;&quot;&gt;Admin&lt;/font&gt;" style="swimlane;whiteSpace=wrap;html=1;labelBackgroundColor=none;fillColor=#FAE5C7;strokeColor=#0F8B8D;fontColor=#143642;" parent="1" vertex="1">
          <mxGeometry x="370" y="570" width="450" height="1470" as="geometry" />
        </mxCell>
        <mxCell id="myEfRL5CyK3dBqMI6C4j-65" value="Verification by Admin" style="rounded=0;whiteSpace=wrap;html=1;labelBackgroundColor=none;fillColor=#FAE5C7;strokeColor=#0F8B8D;fontColor=#143642;" parent="myEfRL5CyK3dBqMI6C4j-31" vertex="1">
          <mxGeometry x="220" y="400" width="120" height="30" as="geometry" />
        </mxCell>
        <mxCell id="myEfRL5CyK3dBqMI6C4j-46" value="" style="rhombus;whiteSpace=wrap;html=1;labelBackgroundColor=none;fillColor=#FAE5C7;strokeColor=#0F8B8D;fontColor=#143642;" parent="myEfRL5CyK3dBqMI6C4j-31" vertex="1">
          <mxGeometry x="265.00000000000006" y="477" width="30" height="40" as="geometry" />
        </mxCell>
        <mxCell id="myEfRL5CyK3dBqMI6C4j-191" value="if verified" style="edgeLabel;html=1;align=center;verticalAlign=middle;resizable=0;points=[];labelBackgroundColor=none;fontColor=#143642;" parent="myEfRL5CyK3dBqMI6C4j-31" vertex="1" connectable="0">
          <mxGeometry x="-329.9982608695651" y="406" as="geometry">
            <mxPoint x="551" y="81" as="offset" />
          </mxGeometry>
        </mxCell>
        <mxCell id="myEfRL5CyK3dBqMI6C4j-199" value="" style="endArrow=classic;html=1;rounded=0;entryX=0.5;entryY=0;entryDx=0;entryDy=0;exitX=0.5;exitY=1;exitDx=0;exitDy=0;labelBackgroundColor=none;fontColor=default;strokeColor=#A8201A;" parent="myEfRL5CyK3dBqMI6C4j-31" source="myEfRL5CyK3dBqMI6C4j-65" target="myEfRL5CyK3dBqMI6C4j-46" edge="1">
          <mxGeometry width="50" height="50" relative="1" as="geometry">
            <mxPoint x="170" y="456" as="sourcePoint" />
            <mxPoint x="220" y="406" as="targetPoint" />
          </mxGeometry>
        </mxCell>
        <mxCell id="myEfRL5CyK3dBqMI6C4j-207" value="if not verified" style="edgeLabel;html=1;align=center;verticalAlign=middle;resizable=0;points=[];labelBackgroundColor=none;fontColor=#143642;" parent="myEfRL5CyK3dBqMI6C4j-31" vertex="1" connectable="0">
          <mxGeometry x="350.0017391304349" y="490" as="geometry">
            <mxPoint x="-8" y="-3" as="offset" />
          </mxGeometry>
        </mxCell>
        <mxCell id="myEfRL5CyK3dBqMI6C4j-215" value="" style="endArrow=classic;html=1;rounded=0;entryX=0.5;entryY=0;entryDx=0;entryDy=0;labelBackgroundColor=none;fontColor=default;strokeColor=#A8201A;" parent="myEfRL5CyK3dBqMI6C4j-31" target="myEfRL5CyK3dBqMI6C4j-180" edge="1">
          <mxGeometry width="50" height="50" relative="1" as="geometry">
            <mxPoint x="295" y="960" as="sourcePoint" />
            <mxPoint x="345" y="910" as="targetPoint" />
          </mxGeometry>
        </mxCell>
        <mxCell id="myEfRL5CyK3dBqMI6C4j-217" value="" style="endArrow=classic;html=1;rounded=0;exitX=0.5;exitY=1;exitDx=0;exitDy=0;labelBackgroundColor=none;fontColor=default;strokeColor=#A8201A;" parent="myEfRL5CyK3dBqMI6C4j-31" source="myEfRL5CyK3dBqMI6C4j-181" target="myEfRL5CyK3dBqMI6C4j-178" edge="1">
          <mxGeometry width="50" height="50" relative="1" as="geometry">
            <mxPoint x="266" y="1090" as="sourcePoint" />
            <mxPoint x="295" y="1120" as="targetPoint" />
          </mxGeometry>
        </mxCell>
        <mxCell id="myEfRL5CyK3dBqMI6C4j-179" value="Go to Admin Panel" style="rounded=0;whiteSpace=wrap;html=1;labelBackgroundColor=none;fillColor=#FAE5C7;strokeColor=#0F8B8D;fontColor=#143642;" parent="myEfRL5CyK3dBqMI6C4j-31" vertex="1">
          <mxGeometry x="235" y="930" width="120" height="30" as="geometry" />
        </mxCell>
        <mxCell id="myEfRL5CyK3dBqMI6C4j-180" value="Manage Verifications" style="rounded=0;whiteSpace=wrap;html=1;labelBackgroundColor=none;fillColor=#FAE5C7;strokeColor=#0F8B8D;fontColor=#143642;" parent="myEfRL5CyK3dBqMI6C4j-31" vertex="1">
          <mxGeometry x="235" y="989" width="120" height="30" as="geometry" />
        </mxCell>
        <mxCell id="myEfRL5CyK3dBqMI6C4j-181" value="Manage Platform Security" style="rounded=0;whiteSpace=wrap;html=1;labelBackgroundColor=none;fillColor=#FAE5C7;strokeColor=#0F8B8D;fontColor=#143642;" parent="myEfRL5CyK3dBqMI6C4j-31" vertex="1">
          <mxGeometry x="235" y="1051" width="120" height="30" as="geometry" />
        </mxCell>
        <mxCell id="myEfRL5CyK3dBqMI6C4j-178" value="&lt;span data-end=&quot;2140&quot; data-start=&quot;2109&quot;&gt;Monitor Platform Activitie&lt;/span&gt;" style="rounded=0;whiteSpace=wrap;html=1;labelBackgroundColor=none;fillColor=#FAE5C7;strokeColor=#0F8B8D;fontColor=#143642;" parent="myEfRL5CyK3dBqMI6C4j-31" vertex="1">
          <mxGeometry x="235" y="1124" width="120" height="30" as="geometry" />
        </mxCell>
        <mxCell id="myEfRL5CyK3dBqMI6C4j-227" value="" style="endArrow=classic;html=1;rounded=0;labelBackgroundColor=none;fontColor=default;strokeColor=#A8201A;" parent="myEfRL5CyK3dBqMI6C4j-31" target="myEfRL5CyK3dBqMI6C4j-181" edge="1">
          <mxGeometry width="50" height="50" relative="1" as="geometry">
            <mxPoint x="294.7" y="1019" as="sourcePoint" />
            <mxPoint x="294.7" y="1048" as="targetPoint" />
          </mxGeometry>
        </mxCell>
        <mxCell id="myEfRL5CyK3dBqMI6C4j-43" value="&lt;font style=&quot;font-size: 20px;&quot;&gt;System&lt;/font&gt;" style="swimlane;whiteSpace=wrap;html=1;labelBackgroundColor=none;fillColor=#FAE5C7;strokeColor=#0F8B8D;fontColor=#143642;" parent="1" vertex="1">
          <mxGeometry x="820" y="570" width="730" height="1470" as="geometry" />
        </mxCell>
        <mxCell id="myEfRL5CyK3dBqMI6C4j-241" value="" style="edgeStyle=orthogonalEdgeStyle;rounded=0;orthogonalLoop=1;jettySize=auto;html=1;labelBackgroundColor=none;fontColor=default;strokeColor=#A8201A;" parent="myEfRL5CyK3dBqMI6C4j-43" source="myEfRL5CyK3dBqMI6C4j-70" target="myEfRL5CyK3dBqMI6C4j-228" edge="1">
          <mxGeometry relative="1" as="geometry" />
        </mxCell>
        <mxCell id="myEfRL5CyK3dBqMI6C4j-70" value="&lt;b&gt;Show Error Message&lt;/b&gt;" style="rounded=0;whiteSpace=wrap;html=1;labelBackgroundColor=none;fillColor=#FAE5C7;strokeColor=#0F8B8D;fontColor=#143642;" parent="myEfRL5CyK3dBqMI6C4j-43" vertex="1">
          <mxGeometry x="240" y="480" width="120" height="30" as="geometry" />
        </mxCell>
        <mxCell id="myEfRL5CyK3dBqMI6C4j-228" value="" style="ellipse;html=1;shape=endState;labelBackgroundColor=none;fillColor=#FAE5C7;strokeColor=#0F8B8D;fontColor=#143642;" parent="myEfRL5CyK3dBqMI6C4j-43" vertex="1">
          <mxGeometry x="284" y="570" width="30" height="30" as="geometry" />
        </mxCell>
        <mxCell id="myEfRL5CyK3dBqMI6C4j-149" value="" style="shape=line;html=1;strokeWidth=6;direction=south;labelBackgroundColor=none;fillColor=#FAE5C7;strokeColor=#0F8B8D;fontColor=#143642;" parent="myEfRL5CyK3dBqMI6C4j-43" vertex="1">
          <mxGeometry x="161.78" y="1190" width="10" height="220" as="geometry" />
        </mxCell>
        <mxCell id="myEfRL5CyK3dBqMI6C4j-145" value="" style="shape=line;html=1;strokeWidth=6;direction=south;labelBackgroundColor=none;fillColor=#FAE5C7;strokeColor=#0F8B8D;fontColor=#143642;" parent="myEfRL5CyK3dBqMI6C4j-43" vertex="1">
          <mxGeometry x="410.78" y="1190" width="10" height="219" as="geometry" />
        </mxCell>
        <mxCell id="myEfRL5CyK3dBqMI6C4j-159" value="" style="edgeStyle=orthogonalEdgeStyle;html=1;verticalAlign=bottom;endArrow=open;endSize=8;rounded=0;exitX=0.498;exitY=0.678;exitDx=0;exitDy=0;exitPerimeter=0;entryX=0;entryY=0.5;entryDx=0;entryDy=0;labelBackgroundColor=none;fontColor=default;strokeColor=#A8201A;" parent="myEfRL5CyK3dBqMI6C4j-43" target="myEfRL5CyK3dBqMI6C4j-173" edge="1">
          <mxGeometry relative="1" as="geometry">
            <mxPoint x="223.78" y="1215" as="targetPoint" />
            <mxPoint x="166.78" y="1215" as="sourcePoint" />
          </mxGeometry>
        </mxCell>
        <mxCell id="myEfRL5CyK3dBqMI6C4j-158" value="" style="edgeStyle=orthogonalEdgeStyle;html=1;verticalAlign=bottom;endArrow=open;endSize=8;rounded=0;exitX=0.498;exitY=0.678;exitDx=0;exitDy=0;exitPerimeter=0;entryX=0;entryY=0.5;entryDx=0;entryDy=0;labelBackgroundColor=none;fontColor=default;strokeColor=#A8201A;" parent="myEfRL5CyK3dBqMI6C4j-43" edge="1">
          <mxGeometry relative="1" as="geometry">
            <mxPoint x="235.77999999999975" y="1246.5" as="targetPoint" />
            <mxPoint x="168.78" y="1248" as="sourcePoint" />
            <Array as="points">
              <mxPoint x="169" y="1247" />
            </Array>
          </mxGeometry>
        </mxCell>
        <mxCell id="myEfRL5CyK3dBqMI6C4j-172" value="Coding Integration" style="rounded=0;whiteSpace=wrap;html=1;labelBackgroundColor=none;fillColor=#FAE5C7;strokeColor=#0F8B8D;fontColor=#143642;" parent="myEfRL5CyK3dBqMI6C4j-43" vertex="1">
          <mxGeometry x="235.78" y="1238" width="120" height="19" as="geometry" />
        </mxCell>
        <mxCell id="myEfRL5CyK3dBqMI6C4j-177" value="R&amp;amp;D" style="rounded=0;whiteSpace=wrap;html=1;labelBackgroundColor=none;fillColor=#FAE5C7;strokeColor=#0F8B8D;fontColor=#143642;" parent="myEfRL5CyK3dBqMI6C4j-43" vertex="1">
          <mxGeometry x="235.78" y="1375" width="120" height="21" as="geometry" />
        </mxCell>
        <mxCell id="myEfRL5CyK3dBqMI6C4j-176" value="Maintenance" style="rounded=0;whiteSpace=wrap;html=1;labelBackgroundColor=none;fillColor=#FAE5C7;strokeColor=#0F8B8D;fontColor=#143642;" parent="myEfRL5CyK3dBqMI6C4j-43" vertex="1">
          <mxGeometry x="235.78" y="1342" width="120" height="21" as="geometry" />
        </mxCell>
        <mxCell id="myEfRL5CyK3dBqMI6C4j-175" value="Deployment" style="rounded=0;whiteSpace=wrap;html=1;labelBackgroundColor=none;fillColor=#FAE5C7;strokeColor=#0F8B8D;fontColor=#143642;" parent="myEfRL5CyK3dBqMI6C4j-43" vertex="1">
          <mxGeometry x="235.78" y="1306" width="120" height="24" as="geometry" />
        </mxCell>
        <mxCell id="myEfRL5CyK3dBqMI6C4j-174" value="&lt;span style=&quot;&quot; data-end=&quot;1693&quot; data-start=&quot;1682&quot;&gt;Testing&lt;/span&gt;&amp;nbsp;" style="rounded=0;whiteSpace=wrap;html=1;labelBackgroundColor=none;fillColor=#FAE5C7;strokeColor=#0F8B8D;fontColor=#143642;" parent="myEfRL5CyK3dBqMI6C4j-43" vertex="1">
          <mxGeometry x="235.78" y="1271" width="120" height="22" as="geometry" />
        </mxCell>
        <mxCell id="myEfRL5CyK3dBqMI6C4j-173" value="Hardware Prototyping" style="rounded=0;whiteSpace=wrap;html=1;labelBackgroundColor=none;fillColor=#FAE5C7;strokeColor=#0F8B8D;fontColor=#143642;" parent="myEfRL5CyK3dBqMI6C4j-43" vertex="1">
          <mxGeometry x="234.78" y="1206" width="120" height="19" as="geometry" />
        </mxCell>
        <mxCell id="myEfRL5CyK3dBqMI6C4j-192" value="" style="edgeStyle=orthogonalEdgeStyle;html=1;verticalAlign=bottom;endArrow=open;endSize=8;rounded=0;labelBackgroundColor=none;fontColor=default;strokeColor=#A8201A;" parent="myEfRL5CyK3dBqMI6C4j-43" edge="1">
          <mxGeometry relative="1" as="geometry">
            <mxPoint x="354.78" y="1216" as="targetPoint" />
            <mxPoint x="414.78" y="1216" as="sourcePoint" />
          </mxGeometry>
        </mxCell>
        <mxCell id="myEfRL5CyK3dBqMI6C4j-154" value="" style="edgeStyle=orthogonalEdgeStyle;html=1;verticalAlign=bottom;endArrow=open;endSize=8;rounded=0;entryX=0;entryY=0.5;entryDx=0;entryDy=0;labelBackgroundColor=none;fontColor=default;strokeColor=#A8201A;" parent="myEfRL5CyK3dBqMI6C4j-43" edge="1">
          <mxGeometry relative="1" as="geometry">
            <mxPoint x="235.77999999999975" y="1282" as="targetPoint" />
            <mxPoint x="170" y="1282" as="sourcePoint" />
            <Array as="points" />
          </mxGeometry>
        </mxCell>
        <mxCell id="myEfRL5CyK3dBqMI6C4j-193" value="" style="edgeStyle=orthogonalEdgeStyle;html=1;verticalAlign=bottom;endArrow=open;endSize=8;rounded=0;labelBackgroundColor=none;fontColor=default;strokeColor=#A8201A;" parent="myEfRL5CyK3dBqMI6C4j-43" edge="1">
          <mxGeometry relative="1" as="geometry">
            <mxPoint x="355.78" y="1248" as="targetPoint" />
            <mxPoint x="415.78" y="1248" as="sourcePoint" />
          </mxGeometry>
        </mxCell>
        <mxCell id="myEfRL5CyK3dBqMI6C4j-194" value="" style="edgeStyle=orthogonalEdgeStyle;html=1;verticalAlign=bottom;endArrow=open;endSize=8;rounded=0;labelBackgroundColor=none;fontColor=default;strokeColor=#A8201A;" parent="myEfRL5CyK3dBqMI6C4j-43" edge="1">
          <mxGeometry relative="1" as="geometry">
            <mxPoint x="355.78" y="1283" as="targetPoint" />
            <mxPoint x="415.78" y="1283" as="sourcePoint" />
          </mxGeometry>
        </mxCell>
        <mxCell id="myEfRL5CyK3dBqMI6C4j-195" value="" style="edgeStyle=orthogonalEdgeStyle;html=1;verticalAlign=bottom;endArrow=open;endSize=8;rounded=0;labelBackgroundColor=none;fontColor=default;strokeColor=#A8201A;" parent="myEfRL5CyK3dBqMI6C4j-43" edge="1">
          <mxGeometry relative="1" as="geometry">
            <mxPoint x="355.78" y="1319" as="targetPoint" />
            <mxPoint x="415.78" y="1319" as="sourcePoint" />
          </mxGeometry>
        </mxCell>
        <mxCell id="myEfRL5CyK3dBqMI6C4j-196" value="" style="edgeStyle=orthogonalEdgeStyle;html=1;verticalAlign=bottom;endArrow=open;endSize=8;rounded=0;labelBackgroundColor=none;fontColor=default;strokeColor=#A8201A;" parent="myEfRL5CyK3dBqMI6C4j-43" edge="1">
          <mxGeometry relative="1" as="geometry">
            <mxPoint x="355.78" y="1353" as="targetPoint" />
            <mxPoint x="415.78" y="1353" as="sourcePoint" />
          </mxGeometry>
        </mxCell>
        <mxCell id="myEfRL5CyK3dBqMI6C4j-197" value="" style="edgeStyle=orthogonalEdgeStyle;html=1;verticalAlign=bottom;endArrow=open;endSize=8;rounded=0;labelBackgroundColor=none;fontColor=default;strokeColor=#A8201A;" parent="myEfRL5CyK3dBqMI6C4j-43" edge="1">
          <mxGeometry relative="1" as="geometry">
            <mxPoint x="355.78" y="1386" as="targetPoint" />
            <mxPoint x="415.78" y="1386" as="sourcePoint" />
          </mxGeometry>
        </mxCell>
        <mxCell id="myEfRL5CyK3dBqMI6C4j-232" value="Use AI Recommendation System" style="rounded=0;whiteSpace=wrap;html=1;labelBackgroundColor=none;fillColor=#FAE5C7;strokeColor=#0F8B8D;fontColor=#143642;" parent="myEfRL5CyK3dBqMI6C4j-43" vertex="1">
          <mxGeometry x="230" y="700" width="160" height="30" as="geometry" />
        </mxCell>
        <mxCell id="myEfRL5CyK3dBqMI6C4j-234" value="Match Freelancer with Project" style="rounded=0;whiteSpace=wrap;html=1;labelBackgroundColor=none;fillColor=#FAE5C7;strokeColor=#0F8B8D;fontColor=#143642;" parent="myEfRL5CyK3dBqMI6C4j-43" vertex="1">
          <mxGeometry x="230" y="770" width="160" height="30" as="geometry" />
        </mxCell>
        <mxCell id="myEfRL5CyK3dBqMI6C4j-233" value="Notify Both Parties" style="rounded=0;whiteSpace=wrap;html=1;labelBackgroundColor=none;fillColor=#FAE5C7;strokeColor=#0F8B8D;fontColor=#143642;" parent="myEfRL5CyK3dBqMI6C4j-43" vertex="1">
          <mxGeometry x="230" y="840" width="160" height="30" as="geometry" />
        </mxCell>
        <mxCell id="myEfRL5CyK3dBqMI6C4j-239" value="" style="endArrow=classic;html=1;rounded=0;entryX=0.5;entryY=0;entryDx=0;entryDy=0;exitX=0.5;exitY=1;exitDx=0;exitDy=0;labelBackgroundColor=none;fontColor=default;strokeColor=#A8201A;" parent="myEfRL5CyK3dBqMI6C4j-43" target="myEfRL5CyK3dBqMI6C4j-228" edge="1">
          <mxGeometry width="50" height="50" relative="1" as="geometry">
            <mxPoint x="299.19000000000005" y="510" as="sourcePoint" />
            <mxPoint x="299.19000000000005" y="557" as="targetPoint" />
          </mxGeometry>
        </mxCell>
        <mxCell id="myEfRL5CyK3dBqMI6C4j-247" value="" style="endArrow=classic;html=1;rounded=0;exitX=0.5;exitY=1;exitDx=0;exitDy=0;labelBackgroundColor=none;fontColor=default;strokeColor=#A8201A;" parent="myEfRL5CyK3dBqMI6C4j-43" edge="1">
          <mxGeometry width="50" height="50" relative="1" as="geometry">
            <mxPoint x="314.19000000000005" y="730" as="sourcePoint" />
            <mxPoint x="314" y="770" as="targetPoint" />
          </mxGeometry>
        </mxCell>
        <mxCell id="myEfRL5CyK3dBqMI6C4j-257" value="" style="edgeStyle=orthogonalEdgeStyle;html=1;verticalAlign=bottom;endArrow=open;endSize=8;rounded=0;entryX=0;entryY=0.5;entryDx=0;entryDy=0;labelBackgroundColor=none;fontColor=default;strokeColor=#A8201A;" parent="myEfRL5CyK3dBqMI6C4j-43" edge="1">
          <mxGeometry relative="1" as="geometry">
            <mxPoint x="235.77999999999975" y="1317.74" as="targetPoint" />
            <mxPoint x="170" y="1317.74" as="sourcePoint" />
            <Array as="points" />
          </mxGeometry>
        </mxCell>
        <mxCell id="myEfRL5CyK3dBqMI6C4j-258" value="" style="edgeStyle=orthogonalEdgeStyle;html=1;verticalAlign=bottom;endArrow=open;endSize=8;rounded=0;entryX=0;entryY=0.5;entryDx=0;entryDy=0;labelBackgroundColor=none;fontColor=default;strokeColor=#A8201A;" parent="myEfRL5CyK3dBqMI6C4j-43" edge="1">
          <mxGeometry relative="1" as="geometry">
            <mxPoint x="235.77999999999975" y="1352.21" as="targetPoint" />
            <mxPoint x="170" y="1352" as="sourcePoint" />
            <Array as="points" />
          </mxGeometry>
        </mxCell>
        <mxCell id="myEfRL5CyK3dBqMI6C4j-260" value="" style="edgeStyle=orthogonalEdgeStyle;html=1;verticalAlign=bottom;endArrow=open;endSize=8;rounded=0;entryX=0;entryY=0.5;entryDx=0;entryDy=0;exitX=0.886;exitY=0.587;exitDx=0;exitDy=0;exitPerimeter=0;labelBackgroundColor=none;fontColor=default;strokeColor=#A8201A;" parent="myEfRL5CyK3dBqMI6C4j-43" source="myEfRL5CyK3dBqMI6C4j-149" edge="1">
          <mxGeometry relative="1" as="geometry">
            <mxPoint x="235.77999999999972" y="1385.27" as="targetPoint" />
            <mxPoint x="169.99999999999997" y="1385.27" as="sourcePoint" />
            <Array as="points" />
          </mxGeometry>
        </mxCell>
        <mxCell id="myEfRL5CyK3dBqMI6C4j-266" value="End" style="text;html=1;align=center;verticalAlign=middle;resizable=0;points=[];autosize=1;strokeColor=none;fillColor=none;labelBackgroundColor=none;fontColor=#143642;" parent="myEfRL5CyK3dBqMI6C4j-43" vertex="1">
          <mxGeometry x="280" y="600" width="40" height="30" as="geometry" />
        </mxCell>
        <mxCell id="myEfRL5CyK3dBqMI6C4j-74" value="" style="endArrow=classic;html=1;rounded=0;exitX=1;exitY=0.5;exitDx=0;exitDy=0;labelBackgroundColor=none;fontColor=default;strokeColor=#A8201A;entryX=0;entryY=0.5;entryDx=0;entryDy=0;" parent="1" source="myEfRL5CyK3dBqMI6C4j-46" edge="1" target="myEfRL5CyK3dBqMI6C4j-70">
          <mxGeometry width="50" height="50" relative="1" as="geometry">
            <mxPoint x="635" y="1078" as="sourcePoint" />
            <mxPoint x="1050" y="1065" as="targetPoint" />
          </mxGeometry>
        </mxCell>
        <mxCell id="myEfRL5CyK3dBqMI6C4j-96" value="&lt;font style=&quot;font-size: 18px;&quot;&gt;Company/Team&lt;/font&gt;" style="swimlane;whiteSpace=wrap;html=1;labelBackgroundColor=none;fillColor=#FAE5C7;strokeColor=#0F8B8D;fontColor=#143642;" parent="1" vertex="1">
          <mxGeometry x="1550" y="570" width="390" height="1470" as="geometry" />
        </mxCell>
        <mxCell id="myEfRL5CyK3dBqMI6C4j-210" value="Project Completion" style="rounded=0;whiteSpace=wrap;html=1;labelBackgroundColor=none;fillColor=#FAE5C7;strokeColor=#0F8B8D;fontColor=#143642;" parent="myEfRL5CyK3dBqMI6C4j-96" vertex="1">
          <mxGeometry x="188" y="840" width="120" height="30" as="geometry" />
        </mxCell>
        <mxCell id="myEfRL5CyK3dBqMI6C4j-153" value="" style="shape=line;html=1;strokeWidth=6;direction=south;labelBackgroundColor=none;fillColor=#FAE5C7;strokeColor=#0F8B8D;fontColor=#143642;" parent="1" vertex="1">
          <mxGeometry x="1290" y="1450" height="200" as="geometry" />
        </mxCell>
        <mxCell id="myEfRL5CyK3dBqMI6C4j-53" value="" style="endArrow=classic;html=1;rounded=0;entryX=1;entryY=0.5;entryDx=0;entryDy=0;exitX=0;exitY=0.5;exitDx=0;exitDy=0;labelBackgroundColor=none;fontColor=default;strokeColor=#A8201A;" parent="1" source="myEfRL5CyK3dBqMI6C4j-46" target="myEfRL5CyK3dBqMI6C4j-56" edge="1">
          <mxGeometry width="50" height="50" relative="1" as="geometry">
            <mxPoint x="570" y="1065" as="sourcePoint" />
            <mxPoint x="577.57" y="1130" as="targetPoint" />
          </mxGeometry>
        </mxCell>
        <mxCell id="myEfRL5CyK3dBqMI6C4j-188" value="" style="endArrow=classic;html=1;rounded=0;entryX=0;entryY=0.5;entryDx=0;entryDy=0;exitX=1;exitY=0.5;exitDx=0;exitDy=0;labelBackgroundColor=none;fontColor=default;strokeColor=#A8201A;" parent="1" source="myEfRL5CyK3dBqMI6C4j-29" target="myEfRL5CyK3dBqMI6C4j-65" edge="1">
          <mxGeometry width="50" height="50" relative="1" as="geometry">
            <mxPoint x="-47" y="1050" as="sourcePoint" />
            <mxPoint x="-37" y="980" as="targetPoint" />
          </mxGeometry>
        </mxCell>
        <mxCell id="myEfRL5CyK3dBqMI6C4j-245" value="" style="endArrow=classic;html=1;rounded=0;exitX=1;exitY=0.5;exitDx=0;exitDy=0;labelBackgroundColor=none;fontColor=default;strokeColor=#A8201A;entryX=0;entryY=0.5;entryDx=0;entryDy=0;" parent="1" source="myEfRL5CyK3dBqMI6C4j-138" edge="1" target="myEfRL5CyK3dBqMI6C4j-232">
          <mxGeometry width="50" height="50" relative="1" as="geometry">
            <mxPoint x="300" y="1282" as="sourcePoint" />
            <mxPoint x="1190" y="1285" as="targetPoint" />
          </mxGeometry>
        </mxCell>
        <mxCell id="myEfRL5CyK3dBqMI6C4j-246" value="" style="endArrow=classic;html=1;rounded=0;exitX=0.886;exitY=-0.049;exitDx=0;exitDy=0;exitPerimeter=0;entryX=0.5;entryY=0;entryDx=0;entryDy=0;labelBackgroundColor=none;fontColor=default;strokeColor=#A8201A;" parent="1" source="myEfRL5CyK3dBqMI6C4j-30" target="myEfRL5CyK3dBqMI6C4j-232" edge="1">
          <mxGeometry width="50" height="50" relative="1" as="geometry">
            <mxPoint x="-60" y="1260" as="sourcePoint" />
            <mxPoint x="1270" y="1230" as="targetPoint" />
            <Array as="points">
              <mxPoint x="-86" y="1220" />
              <mxPoint x="1130" y="1220" />
            </Array>
          </mxGeometry>
        </mxCell>
        <mxCell id="myEfRL5CyK3dBqMI6C4j-248" value="" style="endArrow=classic;html=1;rounded=0;exitX=0;exitY=0.5;exitDx=0;exitDy=0;entryX=1;entryY=0.5;entryDx=0;entryDy=0;labelBackgroundColor=none;fontColor=default;strokeColor=#A8201A;" parent="1" source="myEfRL5CyK3dBqMI6C4j-234" target="myEfRL5CyK3dBqMI6C4j-140" edge="1">
          <mxGeometry width="50" height="50" relative="1" as="geometry">
            <mxPoint x="1273.19" y="1371" as="sourcePoint" />
            <mxPoint x="700" y="1340" as="targetPoint" />
          </mxGeometry>
        </mxCell>
        <mxCell id="myEfRL5CyK3dBqMI6C4j-211" value="" style="endArrow=classic;html=1;rounded=0;entryX=0.5;entryY=1;entryDx=0;entryDy=0;exitX=0.502;exitY=0.385;exitDx=0;exitDy=0;exitPerimeter=0;labelBackgroundColor=none;fontColor=default;strokeColor=#A8201A;" parent="1" target="myEfRL5CyK3dBqMI6C4j-210" edge="1" source="myEfRL5CyK3dBqMI6C4j-145">
          <mxGeometry width="50" height="50" relative="1" as="geometry">
            <mxPoint x="1374.54" y="1869.7999999999997" as="sourcePoint" />
            <mxPoint x="1808.4800000000005" y="1482.2599999999998" as="targetPoint" />
            <Array as="points">
              <mxPoint x="1800" y="1870" />
            </Array>
          </mxGeometry>
        </mxCell>
        <mxCell id="myEfRL5CyK3dBqMI6C4j-261" value="" style="endArrow=classic;html=1;rounded=0;exitX=0;exitY=0.5;exitDx=0;exitDy=0;entryX=0.5;entryY=0;entryDx=0;entryDy=0;labelBackgroundColor=none;fontColor=default;strokeColor=#A8201A;" parent="1" source="myEfRL5CyK3dBqMI6C4j-233" target="myEfRL5CyK3dBqMI6C4j-236" edge="1">
          <mxGeometry width="50" height="50" relative="1" as="geometry">
            <mxPoint x="1140.19" y="1420" as="sourcePoint" />
            <mxPoint x="-90" y="1670" as="targetPoint" />
            <Array as="points">
              <mxPoint x="460" y="1425" />
              <mxPoint x="460" y="1560" />
              <mxPoint x="-140" y="1560" />
            </Array>
          </mxGeometry>
        </mxCell>
        <mxCell id="myEfRL5CyK3dBqMI6C4j-265" value="End" style="text;html=1;align=center;verticalAlign=middle;resizable=0;points=[];autosize=1;strokeColor=none;fillColor=none;labelBackgroundColor=none;fontColor=#143642;" parent="1" vertex="1">
          <mxGeometry x="-159" y="1877" width="40" height="30" as="geometry" />
        </mxCell>
        <mxCell id="myEfRL5CyK3dBqMI6C4j-268" value="" style="endArrow=classic;html=1;rounded=0;exitX=0;exitY=0.5;exitDx=0;exitDy=0;entryX=1;entryY=0.5;entryDx=0;entryDy=0;labelBackgroundColor=none;fontColor=default;strokeColor=#A8201A;" parent="1" source="myEfRL5CyK3dBqMI6C4j-210" target="myEfRL5CyK3dBqMI6C4j-233" edge="1">
          <mxGeometry width="50" height="50" relative="1" as="geometry">
            <mxPoint x="1470.19" y="1370" as="sourcePoint" />
            <mxPoint x="1470" y="1410" as="targetPoint" />
          </mxGeometry>
        </mxCell>
        <mxCell id="myEfRL5CyK3dBqMI6C4j-208" value="" style="endArrow=classic;html=1;rounded=0;exitX=0.5;exitY=1;exitDx=0;exitDy=0;labelBackgroundColor=none;fontColor=default;strokeColor=#A8201A;entryX=0.515;entryY=0.553;entryDx=0;entryDy=0;entryPerimeter=0;" parent="1" source="myEfRL5CyK3dBqMI6C4j-140" edge="1" target="myEfRL5CyK3dBqMI6C4j-149">
          <mxGeometry width="50" height="50" relative="1" as="geometry">
            <mxPoint x="230" y="1870" as="sourcePoint" />
            <mxPoint x="1123.7800000000002" y="1873.9775477671255" as="targetPoint" />
            <Array as="points">
              <mxPoint x="233" y="1874" />
            </Array>
          </mxGeometry>
        </mxCell>
      </root>
    </mxGraphModel>
  </diagram>
</mxfile>
